<svg width="771" height="202" viewBox="0 0 771 202" fill="none" xmlns="http://www.w3.org/2000/svg">
<path d="M246.552 96.496C246.552 89.968 248.056 84.112 251.064 78.928C254.136 73.744 258.264 69.712 263.448 66.832C268.696 63.888 274.424 62.416 280.632 62.416C287.736 62.416 294.04 64.176 299.544 67.696C305.112 71.152 309.144 76.08 311.64 82.48H298.488C296.76 78.96 294.36 76.336 291.288 74.608C288.216 72.88 284.664 72.016 280.632 72.016C276.216 72.016 272.28 73.008 268.824 74.992C265.368 76.976 262.648 79.824 260.664 83.536C258.744 87.248 257.784 91.568 257.784 96.496C257.784 101.424 258.744 105.744 260.664 109.456C262.648 113.168 265.368 116.048 268.824 118.096C272.28 120.08 276.216 121.072 280.632 121.072C284.664 121.072 288.216 120.208 291.288 118.48C294.36 116.752 296.76 114.128 298.488 110.608H311.64C309.144 117.008 305.112 121.936 299.544 125.392C294.04 128.848 287.736 130.576 280.632 130.576C274.36 130.576 268.632 129.136 263.448 126.256C258.264 123.312 254.136 119.248 251.064 114.064C248.056 108.88 246.552 103.024 246.552 96.496ZM390.594 116.368H362.658L357.858 130H346.434L370.338 63.184H383.01L406.914 130H395.394L390.594 116.368ZM387.522 107.44L376.674 76.432L365.73 107.44H387.522ZM465.211 130.672C460.731 130.672 456.699 129.904 453.115 128.368C449.531 126.768 446.715 124.528 444.667 121.648C442.619 118.768 441.595 115.408 441.595 111.568H453.307C453.563 114.448 454.683 116.816 456.667 118.672C458.715 120.528 461.563 121.456 465.211 121.456C468.987 121.456 471.931 120.56 474.043 118.768C476.155 116.912 477.211 114.544 477.211 111.664C477.211 109.424 476.539 107.6 475.195 106.192C473.915 104.784 472.283 103.696 470.299 102.928C468.379 102.16 465.691 101.328 462.235 100.432C457.883 99.28 454.331 98.128 451.579 96.976C448.891 95.76 446.587 93.904 444.667 91.408C442.747 88.912 441.787 85.584 441.787 81.424C441.787 77.584 442.747 74.224 444.667 71.344C446.587 68.464 449.275 66.256 452.731 64.72C456.187 63.184 460.187 62.416 464.731 62.416C471.195 62.416 476.475 64.048 480.571 67.312C484.731 70.512 487.035 74.928 487.483 80.56H475.387C475.195 78.128 474.043 76.048 471.931 74.32C469.819 72.592 467.035 71.728 463.579 71.728C460.443 71.728 457.883 72.528 455.899 74.128C453.915 75.728 452.923 78.032 452.923 81.04C452.923 83.088 453.531 84.784 454.747 86.128C456.027 87.408 457.627 88.432 459.547 89.2C461.467 89.968 464.091 90.8 467.419 91.696C471.835 92.912 475.419 94.128 478.171 95.344C480.987 96.56 483.355 98.448 485.275 101.008C487.259 103.504 488.251 106.864 488.251 111.088C488.251 114.48 487.323 117.68 485.468 120.688C483.675 123.696 481.019 126.128 477.499 127.984C474.043 129.776 469.947 130.672 465.211 130.672ZM567.309 116.368H539.373L534.573 130H523.149L547.053 63.184H559.725L583.629 130H572.109L567.309 116.368ZM564.237 107.44L553.389 76.432L542.445 107.44H564.237ZM617.158 115.408V107.152L649.414 60.88H662.662V105.904H671.59V115.408H662.662V130H651.91V115.408H617.158ZM652.39 72.016L629.734 105.904H652.39V72.016ZM718.867 63.28V105.808C718.867 110.864 720.179 114.672 722.803 117.232C725.491 119.792 729.203 121.072 733.939 121.072C738.739 121.072 742.451 119.792 745.075 117.232C747.763 114.672 749.107 110.864 749.107 105.808V63.28H760.051V105.616C760.051 111.056 758.867 115.664 756.499 119.44C754.131 123.216 750.963 126.032 746.995 127.888C743.027 129.744 738.643 130.672 733.843 130.672C729.043 130.672 724.659 129.744 720.691 127.888C716.787 126.032 713.683 123.216 711.379 119.44C709.075 115.664 707.923 111.056 707.923 105.616V63.28H718.867Z" fill="#154950"/>
<path d="M270.312 151.44V168H268.632V154.776L262.728 168H261.504L255.6 154.824V168H253.92V151.44H255.696L262.104 165.792L268.512 151.44H270.312ZM299.179 168.168C297.627 168.168 296.219 167.808 294.955 167.088C293.691 166.352 292.691 165.336 291.955 164.04C291.235 162.728 290.875 161.248 290.875 159.6C290.875 157.952 291.235 156.48 291.955 155.184C292.691 153.872 293.691 152.856 294.955 152.136C296.219 151.4 297.627 151.032 299.179 151.032C300.747 151.032 302.163 151.4 303.427 152.136C304.691 152.856 305.683 153.872 306.403 155.184C307.123 156.48 307.483 157.952 307.483 159.6C307.483 161.248 307.123 162.728 306.403 164.04C305.683 165.336 304.691 166.352 303.427 167.088C302.163 167.808 300.747 168.168 299.179 168.168ZM299.179 166.704C300.427 166.704 301.547 166.416 302.539 165.84C303.531 165.264 304.315 164.44 304.891 163.368C305.467 162.28 305.755 161.024 305.755 159.6C305.755 158.176 305.467 156.928 304.891 155.856C304.315 154.784 303.531 153.96 302.539 153.384C301.547 152.808 300.427 152.52 299.179 152.52C297.931 152.52 296.811 152.808 295.819 153.384C294.827 153.96 294.043 154.784 293.467 155.856C292.891 156.928 292.603 158.176 292.603 159.6C292.603 161.024 292.891 162.28 293.467 163.368C294.043 164.44 294.827 165.264 295.819 165.84C296.811 166.416 297.931 166.704 299.179 166.704ZM301.507 147.576L296.587 150.432V149.136L301.507 146.064V147.576ZM341.373 151.224L335.013 168H333.093L326.733 151.224H328.557L334.053 166.176L339.597 151.224H341.373ZM363.097 152.592V158.856H369.457V160.248H363.097V166.608H370.177V168H361.417V151.2H370.177V152.592H363.097ZM392.688 151.224V168H391.008V151.224H392.688ZM419.1 168.168C417.996 168.168 417.02 167.976 416.172 167.592C415.34 167.208 414.684 166.672 414.204 165.984C413.724 165.296 413.468 164.528 413.436 163.68H415.212C415.292 164.496 415.652 165.216 416.292 165.84C416.932 166.448 417.868 166.752 419.1 166.752C420.236 166.752 421.132 166.464 421.788 165.888C422.46 165.296 422.796 164.552 422.796 163.656C422.796 162.936 422.612 162.36 422.244 161.928C421.876 161.48 421.42 161.152 420.876 160.944C420.332 160.72 419.58 160.48 418.62 160.224C417.5 159.92 416.612 159.624 415.956 159.336C415.3 159.048 414.74 158.6 414.276 157.992C413.812 157.384 413.58 156.56 413.58 155.52C413.58 154.656 413.804 153.888 414.252 153.216C414.7 152.528 415.332 151.992 416.148 151.608C416.964 151.224 417.9 151.032 418.956 151.032C420.508 151.032 421.756 151.416 422.7 152.184C423.66 152.936 424.212 153.912 424.356 155.112H422.532C422.42 154.424 422.044 153.816 421.404 153.288C420.764 152.744 419.9 152.472 418.812 152.472C417.804 152.472 416.964 152.744 416.292 153.288C415.62 153.816 415.284 154.544 415.284 155.472C415.284 156.176 415.468 156.744 415.836 157.176C416.204 157.608 416.66 157.936 417.204 158.16C417.764 158.384 418.516 158.624 419.46 158.88C420.548 159.184 421.428 159.488 422.1 159.792C422.772 160.08 423.34 160.528 423.804 161.136C424.268 161.744 424.5 162.56 424.5 163.584C424.5 164.368 424.292 165.112 423.876 165.816C423.46 166.52 422.844 167.088 422.028 167.52C421.212 167.952 420.236 168.168 419.1 168.168ZM480.1 156.048C480.1 157.488 479.628 158.648 478.684 159.528C477.74 160.408 476.324 160.848 474.436 160.848H471.052V168H469.372V151.224H474.436C476.308 151.224 477.716 151.664 478.66 152.544C479.62 153.424 480.1 154.592 480.1 156.048ZM474.436 159.408C477.06 159.408 478.372 158.288 478.372 156.048C478.372 154.928 478.06 154.08 477.436 153.504C476.812 152.928 475.812 152.64 474.436 152.64H471.052V159.408H474.436ZM502.119 166.632H508.143V168H500.439V151.224H502.119V166.632ZM537.781 164.016H530.149L528.685 168H526.909L533.029 151.44H534.925L541.021 168H539.245L537.781 164.016ZM537.277 162.624L533.965 153.552L530.653 162.624H537.277ZM573.885 168H572.205L562.917 153.888V168H561.237V151.224H562.917L572.205 165.312V151.224H573.885V168ZM596.89 152.592V158.856H603.25V160.248H596.89V166.608H603.97V168H595.21V151.2H603.97V152.592H596.89ZM632.553 151.224V163.92C632.553 165.2 632.161 166.232 631.377 167.016C630.593 167.784 629.545 168.168 628.233 168.168C626.873 168.168 625.785 167.76 624.969 166.944C624.169 166.112 623.769 164.992 623.769 163.584H625.473C625.489 164.496 625.713 165.24 626.145 165.816C626.593 166.392 627.289 166.68 628.233 166.68C629.129 166.68 629.793 166.416 630.225 165.888C630.657 165.36 630.873 164.704 630.873 163.92V151.224H632.553ZM664.017 164.016H656.385L654.921 168H653.145L659.265 151.44H661.161L667.257 168H665.481L664.017 164.016ZM663.513 162.624L660.201 153.552L656.889 162.624H663.513ZM692.441 151.224C694.297 151.224 695.889 151.56 697.217 152.232C698.545 152.904 699.561 153.872 700.265 155.136C700.969 156.4 701.321 157.904 701.321 159.648C701.321 161.376 700.969 162.872 700.265 164.136C699.561 165.384 698.545 166.344 697.217 167.016C695.889 167.672 694.297 168 692.441 168H687.473V151.224H692.441ZM692.441 166.608C694.777 166.608 696.553 166 697.769 164.784C699.001 163.552 699.617 161.84 699.617 159.648C699.617 157.44 699.001 155.72 697.769 154.488C696.553 153.24 694.777 152.616 692.441 152.616H689.153V166.608H692.441ZM729.475 168.168C727.923 168.168 726.515 167.808 725.251 167.088C723.987 166.352 722.987 165.336 722.251 164.04C721.531 162.728 721.171 161.248 721.171 159.6C721.171 157.952 721.531 156.48 722.251 155.184C722.987 153.872 723.987 152.856 725.251 152.136C726.515 151.4 727.923 151.032 729.475 151.032C731.043 151.032 732.459 151.4 733.723 152.136C734.987 152.856 735.979 153.872 736.699 155.184C737.419 156.48 737.779 157.952 737.779 159.6C737.779 161.248 737.419 162.728 736.699 164.04C735.979 165.336 734.987 166.352 733.723 167.088C732.459 167.808 731.043 168.168 729.475 168.168ZM729.475 166.704C730.723 166.704 731.843 166.416 732.835 165.84C733.827 165.264 734.611 164.44 735.187 163.368C735.763 162.28 736.051 161.024 736.051 159.6C736.051 158.176 735.763 156.928 735.187 155.856C734.611 154.784 733.827 153.96 732.835 153.384C731.843 152.808 730.723 152.52 729.475 152.52C728.227 152.52 727.107 152.808 726.115 153.384C725.123 153.96 724.339 154.784 723.763 155.856C723.187 156.928 722.899 158.176 722.899 159.6C722.899 161.024 723.187 162.28 723.763 163.368C724.339 164.44 725.123 165.264 726.115 165.84C727.107 166.416 728.227 166.704 729.475 166.704ZM763.461 168.168C762.357 168.168 761.381 167.976 760.533 167.592C759.701 167.208 759.045 166.672 758.565 165.984C758.085 165.296 757.829 164.528 757.797 163.68H759.573C759.653 164.496 760.013 165.216 760.653 165.84C761.293 166.448 762.229 166.752 763.461 166.752C764.597 166.752 765.493 166.464 766.149 165.888C766.821 165.296 767.157 164.552 767.157 163.656C767.157 162.936 766.973 162.36 766.605 161.928C766.237 161.48 765.781 161.152 765.237 160.944C764.693 160.72 763.941 160.48 762.981 160.224C761.861 159.92 760.973 159.624 760.317 159.336C759.661 159.048 759.101 158.6 758.637 157.992C758.173 157.384 757.941 156.56 757.941 155.52C757.941 154.656 758.165 153.888 758.613 153.216C759.061 152.528 759.693 151.992 760.509 151.608C761.325 151.224 762.261 151.032 763.317 151.032C764.869 151.032 766.117 151.416 767.061 152.184C768.021 152.936 768.573 153.912 768.717 155.112H766.893C766.781 154.424 766.405 153.816 765.765 153.288C765.125 152.744 764.261 152.472 763.173 152.472C762.165 152.472 761.325 152.744 760.653 153.288C759.981 153.816 759.645 154.544 759.645 155.472C759.645 156.176 759.829 156.744 760.197 157.176C760.565 157.608 761.021 157.936 761.565 158.16C762.125 158.384 762.877 158.624 763.821 158.88C764.909 159.184 765.789 159.488 766.461 159.792C767.133 160.08 767.701 160.528 768.165 161.136C768.629 161.744 768.861 162.56 768.861 163.584C768.861 164.368 768.653 165.112 768.237 165.816C767.821 166.52 767.205 167.088 766.389 167.52C765.573 167.952 764.597 168.168 763.461 168.168Z" fill="#154950"/>
<path d="M112 120H133V112H204V202H112V120Z" fill="#154950"/>
<path d="M56 56L92 20.1186V99.9999L12 99.9999L56 56Z" fill="#154950"/>
<path d="M158 56L204 112L133 112L133 100H112L112 0L158 56Z" fill="#154950"/>
<rect y="120" width="92" height="82" fill="#154950"/>
</svg>
